<?xml version="1.0" standalone="no"?>
<!DOCTYPE svg PUBLIC "-//W3C//DTD SVG 20010904//EN"
 "http://www.w3.org/TR/2001/REC-SVG-20010904/DTD/svg10.dtd">
<svg version="1.0" xmlns="http://www.w3.org/2000/svg"
 width="79.000000pt" height="176.000000pt" viewBox="0 0 79.000000 176.000000"
 preserveAspectRatio="xMidYMid meet">
<metadata>
Created by potrace 1.10, written by Peter Selinger 2001-2011
</metadata>
<g transform="translate(0.000000,176.000000) scale(0.100000,-0.100000)"
fill="#000000" stroke="none">
<path d="M377 1584 c-4 -4 -7 -138 -7 -298 l0 -292 -70 -69 c-38 -38 -70 -74
-70 -80 0 -6 32 -42 70 -80 l70 -69 0 -263 0 -262 -47 -32 c-57 -38 -93 -69
-93 -81 0 -20 39 -5 84 32 l48 40 22 -43 c24 -48 60 -60 102 -32 19 12 24 24
24 55 0 46 -35 80 -81 80 l-29 0 0 248 0 248 75 74 c41 41 75 79 75 85 0 6
-31 42 -70 80 l-70 69 -2 295 c-3 280 -7 319 -31 295z m103 -1438 c16 -20 9
-56 -12 -70 -27 -17 -52 4 -56 48 -3 34 -2 36 26 36 16 0 35 -7 42 -14z"/>
</g>
</svg>
