<?xml version="1.0" standalone="no"?>
<!DOCTYPE svg PUBLIC "-//W3C//DTD SVG 20010904//EN"
 "http://www.w3.org/TR/2001/REC-SVG-20010904/DTD/svg10.dtd">
<svg version="1.0" xmlns="http://www.w3.org/2000/svg"
 width="70.000000pt" height="165.000000pt" viewBox="0 0 70.000000 165.000000"
 preserveAspectRatio="xMidYMid meet">
<metadata>
Created by potrace 1.10, written by Peter Selinger 2001-2011
</metadata>
<g transform="translate(0.000000,165.000000) scale(0.050000,-0.050000)"
fill="#000000" stroke="none">
<path d="M770 3204 c-96 -20 -150 -125 -150 -293 l0 -122 -100 -75 c-102 -76
-129 -134 -63 -134 21 0 60 18 88 40 28 22 57 40 63 40 7 0 12 -173 12 -386
l0 -385 -140 -139 c-170 -169 -170 -151 0 -320 l139 -138 6 -590 c4 -449 11
-591 30 -597 20 -7 25 118 25 579 l0 587 150 149 c182 181 181 160 10 330
l-140 139 0 421 0 422 82 79 c192 187 185 435 -12 393z m90 -115 c0 -55 -18
-89 -79 -155 l-80 -84 0 131 c-1 145 18 179 103 179 51 0 56 -7 56 -71z"/>
</g>
</svg>
