<?xml version="1.0" standalone="no"?>
<!DOCTYPE svg PUBLIC "-//W3C//DTD SVG 20010904//EN"
 "http://www.w3.org/TR/2001/REC-SVG-20010904/DTD/svg10.dtd">
<svg version="1.0" xmlns="http://www.w3.org/2000/svg"
 width="70.000000pt" height="165.000000pt" viewBox="0 0 70.000000 165.000000"
 preserveAspectRatio="xMidYMid meet">
<metadata>
Created by potrace 1.10, written by Peter Selinger 2001-2011
</metadata>
<g transform="translate(0.000000,165.000000) scale(0.100000,-0.100000)"
fill="#000000" stroke="none">
<path d="M362 1598 c-12 -6 -25 -22 -28 -35 -4 -12 -10 -23 -15 -23 -5 0 -9
-33 -9 -73 l0 -74 -50 -34 c-48 -33 -62 -60 -39 -74 6 -4 28 7 50 24 l39 32 0
-199 0 -198 -76 -74 -75 -73 75 -76 76 -76 0 -298 c0 -279 1 -298 18 -295 16
3 17 26 19 297 l2 294 70 71 c39 39 71 76 71 82 0 5 -31 41 -70 79 l-70 69 0
211 0 211 41 39 c52 51 69 84 69 134 0 59 -43 85 -98 59z m66 -54 c2 -25 -6
-41 -42 -80 l-44 -49 5 65 c7 84 17 102 51 98 22 -2 28 -9 30 -34z m-39 -690
c59 -63 58 -66 -14 -133 l-47 -43 -54 53 c-30 29 -54 58 -54 63 0 11 100 116
111 116 4 0 30 -25 58 -56z"/>
</g>
</svg>
