<?xml version="1.0" standalone="no"?>
<!DOCTYPE svg PUBLIC "-//W3C//DTD SVG 20010904//EN"
 "http://www.w3.org/TR/2001/REC-SVG-20010904/DTD/svg10.dtd">
<svg version="1.0" xmlns="http://www.w3.org/2000/svg"
 width="90.000000pt" height="190.000000pt" viewBox="0 0 30.000000 200.000000"
 preserveAspectRatio="xMidYMid meet">
<metadata>
Created by potrace 1.10, written by Peter Selinger 2001-2011
</metadata>
<g transform="translate(0.000000,176.000000) scale(0.100000,-0.100000)" fill="#00000" stroke="none">
<path d="M6 -12c-4 3 -5 8 -5 12s1 8 5 11l125 125c3 3 7 5 11 5s8 -2 11 -5l125 -125c3 -3 5 -7 5 -11s-2 -9 -5 -12l-125 -125c-3 -3 -7 -4 -11 -4s-8 1 -11 4zM40 0l102 -103l102 103l-102 102z"/>
</g>
</svg>
