<?xml version="1.0" standalone="no"?>
<!DOCTYPE svg PUBLIC "-//W3C//DTD SVG 20010904//EN"
 "http://www.w3.org/TR/2001/REC-SVG-20010904/DTD/svg10.dtd">
<svg version="1.0" xmlns="http://www.w3.org/2000/svg"
 width="79.000000pt" height="176.000000pt" viewBox="0 0 79.000000 176.000000"
 preserveAspectRatio="xMidYMid meet">
<metadata>
Created by potrace 1.10, written by Peter Selinger 2001-2011
</metadata>
<g transform="translate(0.000000,176.000000) scale(0.100000,-0.100000)"
fill="#000000" stroke="none">
<path d="M370 1293 l0 -299 -76 -74 -75 -73 75 -76 76 -76 0 -268 c0 -149 -4
-267 -9 -267 -14 0 -131 -89 -131 -100 0 -22 40 -8 84 31 26 23 48 40 49 38 2
-2 12 -22 23 -44 17 -34 25 -40 55 -43 39 -3 63 16 74 60 6 22 1 33 -23 58
-20 19 -41 30 -59 30 l-28 0 2 252 2 252 71 71 c38 39 70 75 70 81 0 5 -31 41
-70 79 l-70 69 -2 295 c-3 273 -4 296 -20 299 -17 3 -18 -16 -18 -295z m79
-388 c60 -63 59 -66 -14 -134 l-47 -43 -54 53 c-30 29 -54 58 -54 63 0 11 100
116 111 116 3 0 29 -25 58 -55z m29 -757 c26 -26 7 -78 -29 -78 -22 0 -35 18
-42 58 -6 31 -5 32 26 32 18 0 38 -5 45 -12z"/>
</g>
</svg>
