<?xml version="1.0" standalone="no"?>
<!DOCTYPE svg PUBLIC "-//W3C//DTD SVG 20010904//EN"
 "http://www.w3.org/TR/2001/REC-SVG-20010904/DTD/svg10.dtd">
<svg version="1.0" xmlns="http://www.w3.org/2000/svg"
 width="70.000000pt" height="137.000000pt" viewBox="0 0 70.000000 137.000000"
 preserveAspectRatio="xMidYMid meet">
<metadata>
Created by potrace 1.10, written by Peter Selinger 2001-2011
</metadata>
<g transform="translate(0.000000,137.000000) scale(0.100000,-0.100000)"
fill="#000000" stroke="none">
<path d="M255 1000 l-80 -80 78 -78 77 -77 0 -292 c0 -271 4 -322 26 -300 3 3
5 137 4 298 l-1 293 78 78 78 78 -80 80 c-44 44 -84 80 -90 80 -6 0 -46 -36
-90 -80z m145 -16 c28 -26 50 -54 50 -63 0 -17 -88 -111 -104 -111 -17 0 -106
93 -106 111 0 15 91 109 105 109 3 0 28 -21 55 -46z"/>
</g>
</svg>
